<mxfile host="65bd71144e">
    <diagram id="IdgnXEe-6lJD7oLkzVtX" name="ページ1">
        <mxGraphModel dx="933" dy="779" grid="1" gridSize="10" guides="1" tooltips="1" connect="1" arrows="1" fold="1" page="1" pageScale="1" pageWidth="1169" pageHeight="827" math="0" shadow="0">
            <root>
                <mxCell id="0"/>
                <mxCell id="1" parent="0"/>
                <mxCell id="5" value="" style="shape=ext;double=1;rounded=1;whiteSpace=wrap;html=1;fillColor=#f5f5f5;strokeColor=#666666;fontColor=#333333;" vertex="1" parent="1">
                    <mxGeometry x="300" y="140" width="620" height="370" as="geometry"/>
                </mxCell>
                <mxCell id="2" value="" style="shape=mxgraph.cisco.computers_and_peripherals.pc;sketch=0;html=1;pointerEvents=1;dashed=0;fillColor=#036897;strokeColor=#ffffff;strokeWidth=2;verticalLabelPosition=bottom;verticalAlign=top;align=center;outlineConnect=0;" vertex="1" parent="1">
                    <mxGeometry x="340" y="100" width="78" height="70" as="geometry"/>
                </mxCell>
                <mxCell id="8" style="edgeStyle=none;html=1;" edge="1" parent="1" source="3" target="4">
                    <mxGeometry relative="1" as="geometry"/>
                </mxCell>
                <mxCell id="3" value="&lt;b&gt;CME ES オプション板&lt;/b&gt;" style="shape=mxgraph.cisco.servers.fileserver;sketch=0;html=1;pointerEvents=1;dashed=0;fillColor=#036897;strokeColor=#ffffff;strokeWidth=2;verticalLabelPosition=bottom;verticalAlign=top;align=center;outlineConnect=0;" vertex="1" parent="1">
                    <mxGeometry x="128.18" y="140" width="43" height="62" as="geometry"/>
                </mxCell>
                <mxCell id="9" value="例）S＆P500" style="edgeStyle=none;html=1;entryX=0;entryY=0.5;entryDx=0;entryDy=0;" edge="1" parent="1" source="4" target="5">
                    <mxGeometry x="-0.0057" relative="1" as="geometry">
                        <mxPoint as="offset"/>
                    </mxGeometry>
                </mxCell>
                <mxCell id="4" value="" style="aspect=fixed;perimeter=ellipsePerimeter;html=1;align=center;shadow=0;dashed=0;spacingTop=3;image;image=img/lib/active_directory/internet_cloud.svg;" vertex="1" parent="1">
                    <mxGeometry x="110" y="300" width="79.37" height="50" as="geometry"/>
                </mxCell>
                <mxCell id="10" value="&lt;font color=&quot;#252323&quot;&gt;サイクル&lt;/font&gt;" style="swimlane;childLayout=stackLayout;horizontal=1;fillColor=#dae8fc;horizontalStack=1;resizeParent=1;resizeParentMax=0;resizeLast=0;collapsible=0;strokeColor=#6c8ebf;stackBorder=10;stackSpacing=-12;resizable=1;align=center;points=[];whiteSpace=wrap;html=1;" vertex="1" parent="1">
                    <mxGeometry x="340" y="210" width="380" height="120" as="geometry"/>
                </mxCell>
                <mxCell id="11" value="CME ES オプション板&lt;br&gt;を取得" style="shape=step;perimeter=stepPerimeter;fixedSize=1;points=[];whiteSpace=wrap;html=1;" vertex="1" parent="10">
                    <mxGeometry x="10" y="33" width="160" height="77" as="geometry"/>
                </mxCell>
                <mxCell id="12" value="①を成型" style="shape=step;perimeter=stepPerimeter;fixedSize=1;points=[];whiteSpace=wrap;html=1;" vertex="1" parent="10">
                    <mxGeometry x="158" y="33" width="100" height="77" as="geometry"/>
                </mxCell>
                <mxCell id="13" value="理論値を計算&lt;br&gt;（Dupire）" style="shape=step;perimeter=stepPerimeter;fixedSize=1;points=[];whiteSpace=wrap;html=1;" vertex="1" parent="10">
                    <mxGeometry x="246" y="33" width="124" height="77" as="geometry"/>
                </mxCell>
                <mxCell id="20" value="&lt;font color=&quot;#ffffff&quot;&gt;ボラティリティ&lt;br&gt;週１とか。&lt;br&gt;&lt;/font&gt;" style="whiteSpace=wrap;html=1;shape=mxgraph.basic.rectCallout;dx=30;dy=15;boundedLbl=1;fontColor=#252323;direction=west;" vertex="1" parent="1">
                    <mxGeometry x="502.25" y="320" width="130" height="90" as="geometry"/>
                </mxCell>
                <mxCell id="21" value="&lt;font color=&quot;#0f0f0f&quot;&gt;&lt;b&gt;データ&lt;/b&gt;&lt;/font&gt;" style="verticalLabelPosition=bottom;html=1;verticalAlign=top;align=center;strokeColor=none;fillColor=#00BEF2;shape=mxgraph.azure.cloud_services_configuration_file;pointerEvents=1;fontColor=#FFFFFF;" vertex="1" parent="1">
                    <mxGeometry x="730" y="360" width="47.5" height="50" as="geometry"/>
                </mxCell>
                <mxCell id="22" style="edgeStyle=orthogonalEdgeStyle;html=1;fontColor=#0f0f0f;entryX=0.5;entryY=0;entryDx=0;entryDy=0;entryPerimeter=0;exitX=0.452;exitY=1.065;exitDx=0;exitDy=0;exitPerimeter=0;strokeColor=#0d0c0c;strokeWidth=2;" edge="1" parent="1" source="13" target="21">
                    <mxGeometry relative="1" as="geometry">
                        <Array as="points">
                            <mxPoint x="642" y="340"/>
                            <mxPoint x="754" y="340"/>
                        </Array>
                    </mxGeometry>
                </mxCell>
                <mxCell id="24" style="edgeStyle=orthogonalEdgeStyle;html=1;strokeColor=#b85450;strokeWidth=2;fontColor=#f4f0f0;entryX=0;entryY=0.5;entryDx=0;entryDy=0;entryPerimeter=0;fillColor=#f8cecc;" edge="1" parent="1" source="23" target="21">
                    <mxGeometry relative="1" as="geometry"/>
                </mxCell>
                <mxCell id="23" value="&lt;font color=&quot;#f4f0f0&quot;&gt;BOT or EA&lt;br&gt;&lt;/font&gt;" style="image;html=1;image=img/lib/clip_art/computers/iMac_128x128.png;fontColor=#0f0f0f;" vertex="1" parent="1">
                    <mxGeometry x="585" y="570" width="75" height="40" as="geometry"/>
                </mxCell>
                <mxCell id="26" value="human" style="verticalLabelPosition=bottom;html=1;verticalAlign=top;align=center;strokeColor=none;fillColor=#00BEF2;shape=mxgraph.azure.user;fontColor=#f4f0f0;" vertex="1" parent="1">
                    <mxGeometry x="550" y="572.5" width="34.5" height="35" as="geometry"/>
                </mxCell>
                <mxCell id="28" value="&lt;font color=&quot;#ffffff&quot;&gt;ここまで。&lt;br&gt;クラス設計&lt;br&gt;&lt;/font&gt;" style="whiteSpace=wrap;html=1;shape=mxgraph.basic.rectCallout;dx=30;dy=15;boundedLbl=1;direction=east;fillColor=#1ba1e2;strokeColor=#006EAF;fontColor=#ffffff;" vertex="1" parent="1">
                    <mxGeometry x="647.5" y="180" width="130" height="60" as="geometry"/>
                </mxCell>
            </root>
        </mxGraphModel>
    </diagram>
</mxfile>